<svg xmlns="http://www.w3.org/2000/svg" viewBox="0 0 912.5 1080.46"><defs><style>.cls-1{fill:#2d2c30;}</style></defs><g id="Layer_2" data-name="Layer 2"><g id="Layer_2-2" data-name="Layer 2"><path class="cls-1" d="M855.84,574c4.19-6.06,25.74-13.44,15.08-16.35C859.39,554.47,851,539.78,851,539.78s1-16.78-3.15-21-14.14-8.14-14.14-8.14v0c0-.36.11-3.79.27-9.27.66-23.47,2.33-84.46,2.33-102.12,0-22,8.39-25.18,8.39-25.18l1-6.29-9.44-9.44s22-48.24,21-69.22-38.81-55.59-38.81-61.88-8.39-14.68-8.39-14.68l-4.49-.71v-10a8.4,8.4,0,0,0,0-16.26V175.48a6.28,6.28,0,0,0,0-11.85v-8.27a4.19,4.19,0,0,0,0-7.26V130.75L803.51,112l-2.1,18.75V148.1a4.19,4.19,0,0,0,0,7.26v8.27a6.28,6.28,0,0,0,0,11.85v10.07a8.4,8.4,0,0,0,0,16.26v9.86l-4.72.36s-8.39,8.39-8.39,14.69c0,3.15-9.49,13.43-19.08,25.53l-5.91-5.91s22-48.24,21-69.22-38.81-55.59-38.81-61.88-8.39-14.68-8.39-14.68l-4.49-.71v-10a8.4,8.4,0,0,0,0-16.26V63.48a6.28,6.28,0,0,0,0-11.85V43.36a4.19,4.19,0,0,0,0-7.26V18.75L730.51,0l-2.1,18.75V36.1a4.19,4.19,0,0,0,0,7.26v8.27a6.28,6.28,0,0,0,0,11.85V73.55a8.4,8.4,0,0,0,0,16.26v9.86l-4.72.36s-8.39,8.39-8.39,14.69-37.76,40.9-38.81,61.88,21,69.22,21,69.22L688,255.26l1.05,6.29s8.39,3.15,8.39,25.17,2.6,111.43,2.6,111.43-9.94,3.94-14.14,8.13-3.15,21-3.15,21-8.39,14.68-19.92,17.83,14.68,11.54,15.73,17.83,2.1,18.88-14.68,26.22S623,501.72,623,501.72s-9.44,5.25,24.13,17.83c14.46,5.43,17.82,29.16,17,54.41H496.94c.06-.46.12-.9.19-1.3.86-5.19,22.5-12.11,13-14.71s-16.44-14.71-16.44-14.71.86-13.84-2.6-17.3-11.66-6.72-11.66-6.72,2.14-73.76,2.14-91.93,6.93-20.77,6.93-20.77l.86-5.19-7.79-7.79s18.17-39.8,17.31-57.11-32-45.86-32-51.05-6.92-12.12-6.92-12.12l-3.7-.59v-8.28a6.93,6.93,0,0,0,0-13.41v-8.31a5.19,5.19,0,0,0,0-9.78v-6.82a3.46,3.46,0,0,0,0-6V205.77l-1.73-15.48-1.74,15.48v14.31a3.46,3.46,0,0,0,0,6v6.82a5.19,5.19,0,0,0,0,9.78V251a6.93,6.93,0,0,0,0,13.41v8.14l-3.89.3s-6.92,6.92-6.92,12.11-31.15,33.75-32,51.06,17.31,57.11,17.31,57.11l-7.79,7.79.86,5.19s6.93,2.6,6.93,20.77c0,13.09,1.11,55.06,1.73,77.48,4.15,1,6.82,1.62,6.82,1.62s5.24,2.91-6.5,9.63c.06,2,.09,3.2.09,3.2s-8.2,3.25-11.66,6.71-2.6,17.31-2.6,17.31-6.92,12.12-16.44,14.71a5.42,5.42,0,0,0-1.9.84c0,.65-.08,1.3-.11,2,2.35,3.28,14.35,8.07,15,11.91.09.53.18,1.11.25,1.73H396.57c-.13-4.65-.12-9.23.09-13.64-.54-.74-.58-1.4.11-2,1.09-17.25,5.45-31.44,16-35.4a116.28,116.28,0,0,0,16.5-7.37c-.07-2.54-.18-6.44-.32-11.25-8-2-21.63-5.76-32.18-10.38-16-7-15-19-14-25s26-14,15-17-19-17-19-17,1-16-3-20-13.48-7.76-13.48-7.76S364.78,322,364.78,301s8-24,8-24l1-6-9-9s21-46,20-66-37-53-37-59-8-14-8-14l-4.28-.68v-9.57a8,8,0,0,0,0-15.5v-9.6a6,6,0,0,0,0-11.3V68.42a4,4,0,0,0,0-6.92V45l-2-17.88L331.5,45V61.5a4,4,0,0,0,0,6.92v7.89a6,6,0,0,0,0,11.3v9.6a8,8,0,0,0,0,15.5v9.4l-4.5.35s-8,8-8,14-36,39-37,59,20,66,20,66l-9,9,1,6s8,3,8,24,2.48,106.24,2.48,106.24S295,410.46,291,414.46s-3,20-3,20-8,14-19,17,14,11,15,17,2,18-14,25-39,12-39,12-9,5,23,17,7,118,7,118,0,9,3,9,13.83,2.72,14.42,6.36S280,670.46,286,674.46c3.64,2.42,8,4.84,10,6.82,1.29,1.29,1.58,2.39,0,3.18V1080H912.5V574ZM760.71,398.67s.35-12.14.79-28.57l-.47-2.84.57-.57c.24-8.8.5-18.6.73-28.33,4.36,11.18,8.14,19.46,8.14,19.46l-8.87,8.87c0,1.16-.06,2.3-.1,3.41l.58,3.45s8.39,3.15,8.39,25.17c0,1.36,0,3,0,4.82A72.32,72.32,0,0,0,760.71,398.67Z"/><path class="cls-1" d="M233.2,771.46c-8,5-9,12-9,12l-6,5s-4.88-9-8.44,0-6.56,8-6.56,8V1080l-48.2-.34v.84H85l0-.84L37,1080V796.46s-3,1-6.56-8-8.44,0-8.44,0l-6-5s-1-7-9-12-5-13-3-13,3-7,3-7l-.56-34H45l-3-113s-5-10-7-12-7,3-7,3-1,11-2,0-26-20-26-20L42,562.7V543.46L48,540V527.46l6-3s-11-44,30-66v-6.64s6,2.64,12-5.36,13-18,15-18h6v-5.68a7,7,0,0,1,0-12.64V402.2a5.49,5.49,0,0,1,0-8.48v-9.26l3-18,3,18v8.61a5.49,5.49,0,0,1,0,9.78v7.29a7,7,0,0,1,0,12.64v5.68h6.2c2,0,9,10,15,18s12,5.36,12,5.36v6.64c41,22,30,66,30,66l6,3V540l6,3.48V562.7l42,12.76s-25,9-26,20-2,0-2,0-5-5-7-3-7,12-7,12l-3,113h38.56l-.56,34s1,7,3,7S241.2,766.46,233.2,771.46Z"/></g></g></svg>