<svg xmlns="http://www.w3.org/2000/svg" xmlns:xlink="http://www.w3.org/1999/xlink" viewBox="0 0 1920 727"><defs><style>.cls-1{fill:url(#linear-gradient);}.cls-2{fill:#fff;}.cls-3{fill:#30212f;}</style><linearGradient id="linear-gradient" x1="78.44" y1="543.5" x2="1888.52" y2="543.5" gradientUnits="userSpaceOnUse"><stop offset="0.04" stop-color="#da8b7f"/><stop offset="0.55" stop-color="#feefa0"/><stop offset="1" stop-color="#da8b7f"/></linearGradient></defs><g id="Layer_2" data-name="Layer 2"><g id="Layer_1-2" data-name="Layer 1"><rect class="cls-1" y="360" width="1920" height="367"/><path class="cls-2" d="M33.08,441.6a52.67,52.67,0,0,0,14.4,1.95h144a52.67,52.67,0,0,0,14.4-1.95,52.67,52.67,0,0,0-14.4-2h-144A52.67,52.67,0,0,0,33.08,441.6Z"/><path class="cls-2" d="M217.08,441.6a52.67,52.67,0,0,0,14.4,1.95h144a52.67,52.67,0,0,0,14.4-1.95,52.67,52.67,0,0,0-14.4-2h-144A52.67,52.67,0,0,0,217.08,441.6Z"/><path class="cls-2" d="M303.08,472.92a52.67,52.67,0,0,0,14.4,1.95h144a52.67,52.67,0,0,0,14.4-1.95,52.67,52.67,0,0,0-14.4-1.95h-144A52.67,52.67,0,0,0,303.08,472.92Z"/><path class="cls-2" d="M433.08,441.6a52.67,52.67,0,0,0,14.4,1.95h144a52.67,52.67,0,0,0,14.4-1.95,52.67,52.67,0,0,0-14.4-2h-144A52.67,52.67,0,0,0,433.08,441.6Z"/><path class="cls-2" d="M232.08,459.94a52.67,52.67,0,0,0,14.4,1.95H504.6a52.67,52.67,0,0,0,14.4-1.95A53.06,53.06,0,0,0,504.6,458H246.48A53.06,53.06,0,0,0,232.08,459.94Z"/><path class="cls-2" d="M346.08,482.76a52.67,52.67,0,0,0,14.4,1.95H618.6a52.67,52.67,0,0,0,14.4-1.95,53.06,53.06,0,0,0-14.4-1.95H360.48A53.06,53.06,0,0,0,346.08,482.76Z"/><path class="cls-2" d="M48.08,485A52.67,52.67,0,0,0,62.48,487H320.6A52.67,52.67,0,0,0,335,485a52.67,52.67,0,0,0-14.4-1.95H62.48A52.67,52.67,0,0,0,48.08,485Z"/><path class="cls-2" d="M519.08,467.77a52.67,52.67,0,0,0,14.4,2H791.6a52.67,52.67,0,0,0,14.4-2,53.06,53.06,0,0,0-14.4-1.95H533.48A53.06,53.06,0,0,0,519.08,467.77Z"/><path class="cls-2" d="M48.08,464.42a53.06,53.06,0,0,0,14.4,1.95H320.6a53.06,53.06,0,0,0,14.4-1.95,52.67,52.67,0,0,0-14.4-1.95H62.48A52.67,52.67,0,0,0,48.08,464.42Z"/><path class="cls-2" d="M1145.08,607.6a52.67,52.67,0,0,0,14.4,1.95h144a52.67,52.67,0,0,0,14.4-1.95,52.67,52.67,0,0,0-14.4-2h-144A52.67,52.67,0,0,0,1145.08,607.6Z"/><path class="cls-2" d="M1329.08,607.6a52.67,52.67,0,0,0,14.4,1.95h144a52.67,52.67,0,0,0,14.4-1.95,52.67,52.67,0,0,0-14.4-2h-144A52.67,52.67,0,0,0,1329.08,607.6Z"/><path class="cls-2" d="M1545.08,607.6a52.67,52.67,0,0,0,14.4,1.95h144a52.67,52.67,0,0,0,14.4-1.95,52.67,52.67,0,0,0-14.4-2h-144A52.67,52.67,0,0,0,1545.08,607.6Z"/><path class="cls-2" d="M1344.08,625.94a52.67,52.67,0,0,0,14.4,1.95H1616.6a52.67,52.67,0,0,0,14.4-1.95,53.06,53.06,0,0,0-14.4-2H1358.48A53.06,53.06,0,0,0,1344.08,625.94Z"/><path class="cls-3" d="M1276,357v15H706V357H822.44V346.28h30.72v-30H844V307h25.48V284h29.76V263h6.24v-6H953V236.4s5,2.4,6,0,0-64.8,0-64.8S957,112,949,107s-11-2-11-5V46s3.7-17,10-17c5,0,6,15,6,15s4,6,8,6,9-2,9-6-6-11-6-16S979,0,985,0c0,0,17,16,17,26s-9,20-5,21,20,1,24,7,12,47,10,50-7,2-8,9-5,122-5,122h6l-.19,22h52.71v6h6.24v21h29.76v23H1138v9.32h-9.16v30h30.72V357Z"/><path class="cls-3" d="M1245.29,363.8l-76.56,1.74c-1.92-.61-3.83-1.24-5.77-1.91l2.75-1.07c-.17-.47-.36-.63-.5-.32a32.61,32.61,0,0,1-.26-4.9,29.5,29.5,0,0,0,.16-3.53,3.21,3.21,0,0,1,.4,1.8,14.72,14.72,0,0,1,.29-3,8.57,8.57,0,0,0,.18-3.07c.24-.16.87,3.09.74,7.82a3.8,3.8,0,0,1,.39-1.53V356a34.85,34.85,0,0,0,.46-5.88,11,11,0,0,1,.82,4.9,26.24,26.24,0,0,1,1-6.59,17.41,17.41,0,0,0,.68-7c.44,0,1.23,4.6,1.36,11.35a2.57,2.57,0,0,1,.46-.88,5.66,5.66,0,0,0,.83-3.81c.24.34.48,2.82.44,6.09.28-.75.57-1.3.82-2.15a22.72,22.72,0,0,0,1-8.25c0-.84.29-1.07.42-.52.18.84.32,1.74.43,2.7a6.84,6.84,0,0,1,.78,3.64,29.44,29.44,0,0,1,.61-6.05,17.51,17.51,0,0,0,.36-6.25c.49-.33,1.77,6.31,1.51,15.93a7.55,7.55,0,0,1,.78-3.11c0,.1,0,.23,0,.35.66-5.86,1.21-9.86.94-12,.86,1.27,1.8,5.81,1.66,10,.34-6.26,1.08-10.9,2-13.43a35.31,35.31,0,0,0,1.4-14.28c.89,0,2.49,9.37,2.77,23.11a5.05,5.05,0,0,1,.93-1.79c.74-.73,2-3.6,1.69-7.77.49.7,1,5.76.9,12.42.56-1.53,1.15-2.66,1.67-4.39,2.11-7,2.1-9.61,2.13-16.79,0-1.72.6-2.18.85-1.06a70.89,70.89,0,0,1,1,20.62,92.31,92.31,0,0,1-1.2,9.71l.69-.07s0-.06,0-.08c.38-1.1.79-1.83,1.14-3,1.33-4.4,1.32-6,1.34-10.55,0-1.08.38-1.37.54-.67a44.64,44.64,0,0,1,.63,13c0,.37-.06.71-.09,1.07l2.34-.14c0-.3,0-.6,0-.88a39.66,39.66,0,0,0,.22-4.65,4.27,4.27,0,0,1,.51,2.37,19.25,19.25,0,0,1,.4-3.91,11.31,11.31,0,0,0,.23-4c.32-.22,1.15,4.07,1,10.3a5.08,5.08,0,0,1,.5-2c0,.07,0,.15,0,.23.42-3.79.78-6.38.61-7.74.56.83,1.16,3.76,1.07,6.46a35.06,35.06,0,0,1,1.28-8.69,22.88,22.88,0,0,0,.9-9.24c.57,0,1.61,6.07,1.79,14.95a3.27,3.27,0,0,1,.61-1.16c.48-.47,1.26-2.33,1.09-5,.31.45.63,3.72.58,8,.36-1,.74-1.72,1.08-2.84,1.36-4.53,1.36-6.22,1.38-10.86,0-1.11.39-1.41.55-.69a45.77,45.77,0,0,1,.65,13.34,61.24,61.24,0,0,1-.74,6.09l.45,0c.24-.67.49-1.15.71-1.88a18.71,18.71,0,0,0,.87-6.83c0-.69.24-.88.34-.43a28.94,28.94,0,0,1,.42,8.38c0,.32-.06.61-.09.91,12,.94,21.37,3.64,31.3,7.06C1249.06,362.38,1247.17,363.11,1245.29,363.8Zm-69.71-5.4c0-.44,0-.89-.07-1.34-.13.83-.27,1.56-.41,2.2l.31-.1A7.15,7.15,0,0,1,1175.58,358.4Z"/><path class="cls-3" d="M885.49,360.92l-128.77,3.49c-3.21-.56-6.42-1.16-9.68-1.78,1.56-.39,3.1-.76,4.64-1.13-.27-.47-.59-.62-.84-.31a20.31,20.31,0,0,1-.38-4.9,17.67,17.67,0,0,0,.32-3.54,2.25,2.25,0,0,1,.64,1.79,9.14,9.14,0,0,1,.53-3,5.25,5.25,0,0,0,.34-3.08c.4-.17,1.42,3.08,1.15,7.81a2.83,2.83,0,0,1,.67-1.54,1.21,1.21,0,0,0,0,.18c.57-2.89,1-4.86.83-5.9.71.62,1.46,2.84,1.32,4.89a17.63,17.63,0,0,1,1.7-6.62,11,11,0,0,0,1.24-7c.73,0,2,4.58,2.15,11.32a2.53,2.53,0,0,1,.79-.89,4.2,4.2,0,0,0,1.43-3.83c.4.34.78,2.81.68,6.09.47-.76,1-1.32,1.4-2.18,1.78-3.46,1.78-4.74,1.85-8.27,0-.84.51-1.08.71-.53a14.5,14.5,0,0,1,.7,2.69c.6.33,1.29,1.89,1.27,3.62a18.55,18.55,0,0,1,1.09-6.06c.56-1.29,1.31-4.31.68-6.26.83-.35,2.9,6.26,2.36,15.89a5.82,5.82,0,0,1,1.34-3.12,3.49,3.49,0,0,1,0,.35c1.17-5.88,2.15-9.9,1.71-12,1.45,1.26,3,5.77,2.68,9.95.65-6.27,1.95-10.93,3.47-13.48s3.77-9.06,2.51-14.32c1.49,0,4.09,9.32,4.4,23.05a5.16,5.16,0,0,1,1.59-1.8c1.26-.75,3.32-3.65,2.92-7.82.81.7,1.59,5.74,1.38,12.41,1-1.55,2-2.69,2.86-4.43,3.62-7.06,3.63-9.67,3.77-16.85,0-1.72,1-2.19,1.44-1.08,2,5.55,2.61,12.53,1.47,20.61a59.65,59.65,0,0,1-2.13,9.74l1.15-.08.05-.09c.65-1.1,1.34-1.85,1.95-3,2.28-4.44,2.28-6.08,2.37-10.59,0-1.08.65-1.38.91-.68a26.87,26.87,0,0,1,.92,12.95c-.05.37-.12.72-.17,1.07l3.94-.19c0-.3,0-.6,0-.88.26-2.38.61-4,.43-4.66a3,3,0,0,1,.84,2.36,12.24,12.24,0,0,1,.7-3.92,7,7,0,0,0,.45-4c.53-.22,1.87,4,1.52,10.28a3.68,3.68,0,0,1,.87-2c0,.06,0,.15,0,.23.76-3.81,1.39-6.41,1.11-7.77.93.82,1.92,3.74,1.73,6.44.42-4.05,1.26-7.07,2.24-8.72s2.44-5.86,1.63-9.26c1,0,2.64,6,2.84,14.91a3.49,3.49,0,0,1,1-1.17,5.52,5.52,0,0,0,1.89-5c.52.45,1,3.71.89,8,.62-1,1.27-1.74,1.85-2.86,2.34-4.57,2.35-6.26,2.44-10.9,0-1.11.67-1.42.93-.7a27.65,27.65,0,0,1,.95,13.33,40.15,40.15,0,0,1-1.31,6.11h.76c.4-.67.83-1.15,1.21-1.89,1.48-2.87,1.48-3.93,1.54-6.85,0-.7.42-.89.58-.44a17.43,17.43,0,0,1,.6,8.38q-.07.47-.15.9c20.24.67,35.89,3.16,52.54,6.36C891.84,359.43,888.67,360.19,885.49,360.92Zm-117.16-3.81c0-.44-.08-.89-.11-1.34a21.44,21.44,0,0,1-.71,2.21l.52-.11A4.3,4.3,0,0,1,768.33,357.11Z"/></g></g></svg>