<svg xmlns="http://www.w3.org/2000/svg" viewBox="0 0 1917 195"><defs><style>.cls-1{fill:#473246;}</style></defs><g id="Layer_2" data-name="Layer 2"><g id="Layer_1-2" data-name="Layer 1"><polygon class="cls-1" points="1917 107.61 1917 195 0 195 0 107.61 0.5 107.61 0.5 50.38 92.5 50.38 92.5 107.61 118.5 107.61 118.5 77.13 409.5 77.13 409.5 23.01 868.5 23.01 868.5 50.38 1074.5 50.38 1074.5 12.44 1209.5 12.44 1209.5 107.61 1252.5 107.61 1252.5 87.08 1328.5 87.08 1328.5 107.61 1379.5 107.61 1379.5 77.13 1446.5 77.13 1446.5 107.61 1544.5 107.61 1544.5 23.01 1587.5 23.01 1587.5 107.61 1656.5 107.61 1656.5 23.01 1699.5 23.01 1699.5 107.61 1774.5 107.61 1774.5 0 1857.5 0 1857.5 107.61 1917 107.61"/></g></g></svg>