<svg xmlns="http://www.w3.org/2000/svg" viewBox="0 0 337 521.11"><defs><style>.cls-1,.cls-2{fill:#191629;}.cls-2{stroke:#fff;stroke-miterlimit:10;}.cls-3{fill:none;}.cls-4{fill:#191633;}</style></defs><g id="Layer_2" data-name="Layer 2"><g id="Layer_1-2" data-name="Layer 1"><g id="Layer_2-2" data-name="Layer 2"><g id="Layer_1-2-2" data-name="Layer 1-2"><path class="cls-1" d="M337,267v66.14c-13,0-9.62,31.11-9.62,31.11L325.76,520.4c-18.25-2.86-34.64,2.28-50.64,0l.79-155.9a86.07,86.07,0,0,0,.39-9.36v-.88h0v-1.35a9.38,9.38,0,0,0-.07-1.39v-.37h0c0-.43-.06-.85-.1-1.27s-.09-1.07-.15-1.61h0v-.19c-.06-.46-.11-.91-.18-1.36h0c-.06-.44-.13-.89-.22-1.32h0l-.09-.49q-.12-.66-.27-1.29c-.08-.35-.16-.7-.26-1s-.15-.56-.23-.83v-.08a1.36,1.36,0,0,0-.13-.42c-.05-.14-.09-.27-.13-.4s-.13-.37-.2-.55l-.27-.69c-.09-.22-.19-.44-.29-.66s-.2-.43-.31-.63a.54.54,0,0,0-.07-.13v-.07l-.24-.42v-.05c-.08-.13-.16-.27-.25-.39l-.08-.13a4.67,4.67,0,0,0-.36-.51c-.08-.12-.17-.23-.26-.34l-.39-.45-.21-.22a3,3,0,0,0-.32-.3,3.36,3.36,0,0,0-.41-.34l-.36-.27a3.88,3.88,0,0,0-.48-.3l-.12-.07a3.68,3.68,0,0,0-.44-.23l-.11-.05a4.6,4.6,0,0,0-.52-.19h-.15a3,3,0,0,0-.43-.12h-.35a5.21,5.21,0,0,0-.55-.08,5.08,5.08,0,0,0-.78,0l-5.09-.29V269.76h-185v63.35a5.08,5.08,0,0,0-.78,0c-.2,0-.41.05-.61.09h-.38l-.58.16h0c-.19.06-.37.13-.54.2l-.14.06a4.63,4.63,0,0,0-.54.29,6,6,0,0,0-.53.34h0a6,6,0,0,0-.56.44l-.42.4a2.73,2.73,0,0,0-.23.25h0a3.8,3.8,0,0,0-.33.37l-.24.31c-.17.22-.33.46-.48.7s-.29.46-.42.7c0,.09-.11.19-.15.28s-.23.45-.34.68-.27.6-.39.91l-.18.47-.18.49c-.1.29-.19.58-.28.88s-.23.76-.32,1.15l-.12.45a2.82,2.82,0,0,1-.14.61c0,.21-.15.71-.21,1.07s-.1.5-.14.75v.12c-.06.37-.12.74-.17,1.11-.08.52-.14,1-.2,1.57s-.1,1-.14,1.51-.08,1-.1,1.44l-.06,1v2.74a86.07,86.07,0,0,0,.39,9.36L66.24,520.4c-16.11,2.76-33.37-3.58-51.52,0l.68-155.9s3.39-31.1-9.62-31.1l-5.09-.29V266.9A87.87,87.87,0,0,0,13,265.57h0c1.73-.39,2.93-.9,2.93-1.53v-36.7H322V264a.48.48,0,0,1-.19.35C323,266.42,337,267,337,267Z"/><path class="cls-2" d="M329.36,172.23v34.24c-5.37.83-7.63,17.32-7.63,17.32v1.89H276.48v-2s-2.1-15.35-7.08-17.17V172.23h12.24V131.39s2-16.53-6.12-15.26l-6.39.13V93h9.67l.2-34h-9.89S283.54,29.75,292,32V.5h6.63L300.24,32c8.48-2.29,22.9,26.93,22.9,26.93h-9.9L313.46,93h9.68v23.08c-8-1.11-6,15.27-6,15.27v40.84Z"/><path class="cls-2" d="M68.62,172.23v34.24c-5.38.83-7.64,17.32-7.64,17.32v6.47H15.73v-6.54s-2.1-15.35-7.08-17.17V172.23H20.89V131.39s2-16.53-6.12-15.26l-6.39.13V93h9.68l.21-34H8.38S22.8,29.75,31.28,32V.5h6.63L39.49,32c8.51-2.25,22.9,27,22.9,27H52.5l.21,34h9.68v23.08c-8-1.11-6,15.27-6,15.27v40.84Z"/><path class="cls-1" d="M76.25,267v2.79H31.19V267s-12.06-.33-18.39-1.4c1.73-.39,2.93-.9,2.93-1.53v-36.7H61v36.77C61,266.37,76.25,267,76.25,267Z"/><path class="cls-3" d="M269.4,203.93a2.73,2.73,0,0,0-.56-.15"/><path class="cls-3" d="M323.24,114.66h-.1"/><path class="cls-1" d="M321.81,264.39c-2.12,2-21.5,2.51-21.5,2.51v2.86H79.48V267S61,266.4,61,264.14V222.82H321.73v41.29A.54.54,0,0,0,321.81,264.39Z"/><path class="cls-1" d="M322,222.82V264c0,2.26-18.5,2.86-18.5,2.86v2.86h-3.19V266.9s19.38-.54,21.5-2.51a.54.54,0,0,1-.08-.28V222.82Z"/><rect class="cls-4" x="79.65" y="236.39" width="31.11" height="19.23"/><rect class="cls-4" x="122.63" y="236.39" width="31.11" height="19.23"/><rect class="cls-4" x="169.01" y="236.39" width="31.11" height="19.23"/><rect class="cls-4" x="218.79" y="236.39" width="31.11" height="19.23"/><path class="cls-1" d="M278.59,364.47,280.4,520c-15.47-2.21-29.29,1.6-42.38,0l-2.35-177H93l1.92,176.49c-9.21,1.39-23.27-.83-33.4.91L64,364.18a88,88,0,0,1-.4-9.6v-2.81l.06-1c0-.49.06-1,.1-1.47s.09-1,.15-1.55.13-1.08.2-1.61a7.47,7.47,0,0,1,.17-1.14v-.12a4,4,0,0,1,.14-.77c0-.25.13-.74.21-1.1s.1-.42.15-.63l.12-.46c.09-.4.21-.79.33-1.18s.18-.6.29-.9l.18-.5c.06-.17.12-.32.19-.49s.25-.62.4-.93.22-.47.34-.7l.16-.28a6.52,6.52,0,0,1,.43-.72c.15-.25.32-.49.49-.72l.25-.32a4,4,0,0,1,.34-.38h0a2.73,2.73,0,0,1,.23-.25l.43-.41a6.51,6.51,0,0,1,.58-.46h0a4.93,4.93,0,0,1,.54-.34,6,6,0,0,1,.56-.3l.14-.06a5.2,5.2,0,0,1,.55-.21h.11l.59-.16h.15c.21,0,.41-.07.62-.09a5.34,5.34,0,0,1,.8,0v-65H263.52v65l5.22.3a4.82,4.82,0,0,1,1.36.08h.36a2.23,2.23,0,0,1,.44.13l.16.05a4.76,4.76,0,0,1,.53.19l.11.05a4.92,4.92,0,0,1,.45.24l.13.07a5,5,0,0,1,.49.31,3.27,3.27,0,0,1,.37.28,2.79,2.79,0,0,1,.42.35l.33.3.21.23c.14.15.27.3.4.46a3,3,0,0,1,.27.35,6.15,6.15,0,0,1,.37.52.64.64,0,0,1,.08.14c.09.13.18.26.26.4v0c.08.14.16.27.24.43v.07a.57.57,0,0,1,.08.13c.11.21.21.42.31.65s.21.45.3.68.2.46.28.7.14.37.2.57.1.27.14.41.09.29.13.43v.08c.08.28.17.56.24.85s.18.71.26,1.07.2.87.28,1.32l.09.5h0c.09.44.16.9.23,1.35h0c.07.46.12.92.18,1.39v.2h0c.07.55.12,1.1.16,1.65s.07.86.1,1.3h0v.38c0,.49.05,1,.07,1.43s0,.92,0,1.38h0v.91A84.87,84.87,0,0,1,278.59,364.47Z"/><line class="cls-3" x1="275.12" y1="343.53" x2="234.06" y2="343.53"/><polyline class="cls-3" points="94.92 343.53 67.36 343.53 66.24 343.53"/><path class="cls-1" d="M91,340.32V519.77c6.18-.91,13,.76,18.76,0l-.83-106.19c0-9.82,26.08-26.42,42.51-35.91,7.55-4.37,13.07-7.22,13.07-7.22s5.52,2.85,13.07,7.22c16.43,9.49,42.51,26.09,42.51,35.91V520.64c5.68.67,11.65-1.43,17.92-.66V340.37Zm31.08,36.21a10.77,10.77,0,1,1,10.75-10.79v0a10.76,10.76,0,0,1-10.76,10.76h0Zm93.82,0a10.77,10.77,0,1,1,10.76-10.78v0a10.76,10.76,0,0,1-10.76,10.76h0Z"/><path class="cls-4" d="M226.64,365.77A10.76,10.76,0,1,1,215.88,355a10.76,10.76,0,0,1,10.76,10.77Z"/><path class="cls-4" d="M132.81,365.77A10.76,10.76,0,1,1,122.06,355h0A10.76,10.76,0,0,1,132.81,365.77Z"/><rect class="cls-1" x="94.92" y="343.29" width="139.14" height="0.24"/><rect class="cls-1" x="76.25" y="289" width="184.96" height="34.5"/><path class="cls-4" d="M92.25,292.25S87,296,85.55,296.9s-2.23,3.53-2.23,3.53v22.69l17.85.1V300.53s-.74-2.61-2.23-3.54-6.69-4.64-6.69-4.64Z"/><path class="cls-4" d="M122.79,292.25s-5.21,3.72-6.69,4.65-2.23,3.53-2.23,3.53v22.69l17.85.1V300.53s-.75-2.61-2.23-3.54-6.7-4.64-6.7-4.64Z"/><path class="cls-4" d="M155.6,292.25s-5.21,3.72-6.7,4.65-2.23,3.53-2.23,3.53v22.69l17.85.1V300.53s-.74-2.61-2.23-3.54-6.69-4.64-6.69-4.64Z"/><path class="cls-4" d="M184.44,292.25s-5.2,3.72-6.69,4.65-2.23,3.53-2.23,3.53v22.69l17.85.1V300.53s-.74-2.61-2.23-3.54-6.7-4.64-6.7-4.64Z"/><path class="cls-4" d="M214.42,292.25s-5.21,3.72-6.69,4.65-2.24,3.53-2.24,3.53v22.69l17.86.1V300.53s-.75-2.61-2.23-3.54-6.7-4.64-6.7-4.64Z"/><path class="cls-4" d="M242.14,292.25s-5.21,3.72-6.7,4.65-2.23,3.53-2.23,3.53v22.69l17.85.1V300.53s-.74-2.61-2.23-3.54-6.69-4.64-6.69-4.64Z"/><path class="cls-4" d="M320.14,285.25s-5.21,3.72-6.7,4.65-2.23,3.53-2.23,3.53v22.69l17.85.1V293.53s-.74-2.61-2.23-3.54-6.69-4.64-6.69-4.64Z"/><path class="cls-4" d="M292.14,285.25s-5.21,3.72-6.7,4.65-2.23,3.53-2.23,3.53v22.69l17.85.1V293.53s-.74-2.61-2.23-3.54-6.69-4.64-6.69-4.64Z"/><path class="cls-4" d="M29.14,285.25s-5.21,3.72-6.7,4.65-2.23,3.53-2.23,3.53v22.69l17.85.1V293.53s-.74-2.61-2.23-3.54-6.69-4.64-6.69-4.64Z"/><path class="cls-4" d="M6.53,285.25S2.72,289,1.63,289.9,0,293.43,0,293.43v22.69l13.06.1V293.53s-.54-2.61-1.63-3.54-4.9-4.64-4.9-4.64Z"/></g></g></g></g></svg>