<svg xmlns="http://www.w3.org/2000/svg" viewBox="0 0 1917 235"><defs><style>.cls-1{fill:#5f425e;}</style></defs><g id="Layer_2" data-name="Layer 2"><g id="Layer_1-2" data-name="Layer 1"><polygon class="cls-1" points="1917 62.72 1917 235 0 235 0 93.7 33 93.7 33 62.72 93 62.72 93 93.7 119 93.7 119 0 171 0 171 93.7 192 93.7 192 62.72 232 62.72 232 93.7 389 93.7 389 77.83 433 77.83 433 93.7 519 93.7 519 77.83 836 77.83 836 93.7 908 93.7 908 10.58 925 10.58 925 93.7 1049 93.7 1049 40.8 1276 40.8 1276 77.83 1392 77.83 1392 23.42 1657 23.42 1657 93.7 1755 93.7 1755 62.72 1917 62.72"/></g></g></svg>