<?xml version="1.0" encoding="utf-8"?>
<!-- Generator: Adobe Illustrator 25.2.0, SVG Export Plug-In . SVG Version: 6.00 Build 0)  -->
<svg version="1.1" id="Layer_1" xmlns="http://www.w3.org/2000/svg" xmlns:xlink="http://www.w3.org/1999/xlink" x="0px" y="0px"
	 viewBox="0 0 337 471.2" style="enable-background:new 0 0 337 471.2;" xml:space="preserve">
<style type="text/css">
	.st0{fill:#191629;}
	.st1{fill:#191629;stroke:#FFFFFF;stroke-miterlimit:10;}
	.st2{fill:none;}
	.st3{fill:#191633;}
</style>
<g id="Layer_2_1_">
	<g id="Layer_1-2">
		<path class="st0" d="M337,267v66.1c-13,0-9.6,31.1-9.6,31.1v105.3c-18.2-2.9-35.5-5.5-51.5-7.7v-97.3c0.3-3.1,0.4-6.2,0.4-9.4
			c0-0.3,0-0.6,0-0.9l0,0c0-0.5,0-0.9,0-1.4s0-0.9-0.1-1.4v-0.1c0-0.1,0-0.2,0-0.3l0,0c0-0.4-0.1-0.9-0.1-1.3s-0.1-1.1-0.1-1.6l0,0
			c0,0,0-0.1,0-0.1s0-0.1,0-0.1c-0.1-0.5-0.1-0.9-0.2-1.4l0,0c-0.1-0.4-0.1-0.9-0.2-1.3l0,0l-0.1-0.5c-0.1-0.4-0.2-0.9-0.3-1.3
			c-0.1-0.4-0.2-0.7-0.3-1s-0.1-0.6-0.2-0.8v-0.1c0-0.1-0.1-0.3-0.1-0.4s-0.1-0.3-0.1-0.4s-0.1-0.4-0.2-0.5s-0.2-0.5-0.3-0.7
			s-0.2-0.4-0.3-0.7s-0.2-0.4-0.3-0.6c0,0,0-0.1-0.1-0.1v-0.1l-0.2-0.4v0c-0.1-0.1-0.2-0.3-0.2-0.4l-0.1-0.1
			c-0.1-0.2-0.2-0.3-0.4-0.5c-0.1-0.1-0.2-0.2-0.3-0.3s-0.3-0.3-0.4-0.5l-0.2-0.2c-0.1-0.1-0.2-0.2-0.3-0.3
			c-0.1-0.1-0.3-0.2-0.4-0.3c-0.1-0.1-0.2-0.2-0.4-0.3c-0.2-0.1-0.3-0.2-0.5-0.3l-0.1-0.1c-0.1-0.1-0.3-0.2-0.4-0.2l-0.1,0
			c-0.2-0.1-0.3-0.1-0.5-0.2h-0.1c-0.1-0.1-0.3-0.1-0.4-0.1H268h-0.2l0,0c-0.2,0-0.4-0.1-0.5-0.1c-0.3,0-0.5,0-0.8,0l-5.1-0.3v-63.7
			h-185v63.4c-0.3,0-0.5,0-0.8,0c-0.2,0-0.4,0-0.6,0.1h-0.2h-0.1l0,0l-0.6,0.2l0,0H74c-0.2,0.1-0.4,0.1-0.5,0.2l-0.1,0.1
			c-0.2,0.1-0.4,0.2-0.5,0.3c-0.2,0.1-0.4,0.2-0.5,0.3l0,0c-0.2,0.1-0.4,0.3-0.6,0.4l-0.4,0.4c-0.1,0.1-0.2,0.2-0.2,0.2l0,0
			c-0.1,0.1-0.2,0.2-0.3,0.4l-0.2,0.3c-0.2,0.2-0.3,0.5-0.5,0.7c-0.2,0.2-0.3,0.5-0.4,0.7c0,0.1-0.1,0.2-0.2,0.3s-0.2,0.5-0.3,0.7
			s-0.3,0.6-0.4,0.9l-0.2,0.5l-0.2,0.5c-0.1,0.3-0.2,0.6-0.3,0.9s-0.2,0.8-0.3,1.1l-0.1,0.5c0,0.2-0.1,0.4-0.1,0.6s-0.2,0.7-0.2,1.1
			s-0.1,0.5-0.1,0.8c0,0,0,0.1,0,0.1c-0.1,0.4-0.1,0.7-0.2,1.1c-0.1,0.5-0.1,1-0.2,1.6s-0.1,1-0.1,1.5s-0.1,1-0.1,1.4l-0.1,1
			c0,0.2,0,0.4,0,0.5c0,0.4,0,0.9,0,1.3s0,0.6,0,0.9c0,3.1,0.1,6.2,0.4,9.4v97.4c-16.1,2.8-33.3,6-51.5,9.6V364.5
			c0,0,3.4-31.1-9.6-31.1l-5.1-0.3v-66.2c4.1-0.2,8.3-0.6,12.3-1.3l0,0c1.7-0.4,2.9-0.9,2.9-1.5v-36.7h306V264
			c0,0.1-0.1,0.3-0.2,0.4C323,266.4,337,267,337,267z"/>
		<path class="st1" d="M329.4,172.2v34.2c-5.4,0.8-7.6,17.3-7.6,17.3v1.9h-45.2v-2c0,0-2.1-15.4-7.1-17.2v-34.3h12.2v-40.8
			c0,0,2-16.5-6.1-15.3l-6.4,0.1V93h9.7l0.2-34h-9.9c0,0,14.4-29.2,22.9-27V0.5h6.6l1.6,31.5c8.5-2.3,22.9,26.9,22.9,26.9h-9.9
			l0.2,34.1h9.7v23.1c-8-1.1-6,15.3-6,15.3v40.8L329.4,172.2z"/>
		<path class="st1" d="M68.6,172.2v34.2c-5.4,0.8-7.6,17.3-7.6,17.3v6.5H15.7v-6.5c0,0-2.1-15.4-7.1-17.2v-34.3h12.2v-40.8
			c0,0,2-16.5-6.1-15.3l-6.4,0.1V93h9.7l0.2-34H8.4c0,0,14.4-29.2,22.9-27V0.5h6.6L39.5,32c8.5-2.2,22.9,27,22.9,27h-9.9l0.2,34h9.7
			v23.1c-8-1.1-6,15.3-6,15.3v40.8L68.6,172.2z"/>
		<path class="st0" d="M76.2,267v2.8H31.2V267c0,0-12.1-0.3-18.4-1.4c1.7-0.4,2.9-0.9,2.9-1.5v-36.7H61v36.8
			C61,266.4,76.2,267,76.2,267z"/>
		<path class="st2" d="M269.4,203.9c-0.2-0.1-0.4-0.1-0.6-0.1"/>
		<path class="st2" d="M323.2,114.7h-0.1"/>
		<path class="st0" d="M321.8,264.4c-2.1,2-21.5,2.5-21.5,2.5v2.9H79.5V267c0,0-18.5-0.6-18.5-2.9v-41.3h260.8v41.3
			C321.7,264.2,321.8,264.3,321.8,264.4z"/>
		<path class="st0" d="M322,222.8V264c0,2.3-18.5,2.9-18.5,2.9v2.9h-3.2v-2.8c0,0,19.4-0.5,21.5-2.5c-0.1-0.1-0.1-0.2-0.1-0.3v-41.3
			H322z"/>
		<rect x="79.7" y="236.4" class="st3" width="31.1" height="19.2"/>
		<rect x="122.6" y="236.4" class="st3" width="31.1" height="19.2"/>
		<rect x="169" y="236.4" class="st3" width="31.1" height="19.2"/>
		<rect x="218.8" y="236.4" class="st3" width="31.1" height="19.2"/>
		<path class="st0" d="M278.6,364.5v99.8c-15.5-2.2-29.8-4.1-42.9-5.8V343H93v116.4c-9.2,1.4-18.9,2.9-29,4.7v-99.9
			c-0.3-3.2-0.4-6.4-0.4-9.6c0-0.3,0-0.6,0-0.9s0-0.9,0-1.4c0-0.2,0-0.4,0-0.5l0.1-1c0-0.5,0.1-1,0.1-1.5s0.1-1,0.2-1.5
			s0.1-1.1,0.2-1.6c0-0.4,0.1-0.8,0.2-1.1c0,0,0-0.1,0-0.1c0-0.3,0.1-0.5,0.1-0.8s0.1-0.7,0.2-1.1s0.1-0.4,0.2-0.6l0.1-0.5
			c0.1-0.4,0.2-0.8,0.3-1.2s0.2-0.6,0.3-0.9l0.2-0.5c0.1-0.2,0.1-0.3,0.2-0.5s0.2-0.6,0.4-0.9s0.2-0.5,0.3-0.7l0.2-0.3
			c0.1-0.2,0.3-0.5,0.4-0.7c0.2-0.2,0.3-0.5,0.5-0.7l0.2-0.3c0.1-0.1,0.2-0.3,0.3-0.4l0,0c0.1-0.1,0.1-0.2,0.2-0.2l0.4-0.4
			c0.2-0.2,0.4-0.3,0.6-0.5l0,0c0.2-0.1,0.4-0.2,0.5-0.3c0.2-0.1,0.4-0.2,0.6-0.3l0.1-0.1c0.2-0.1,0.4-0.2,0.6-0.2h0.1h0.1l0.6-0.2
			l0,0h0.2l0,0l0,0c0.2,0,0.4-0.1,0.6-0.1c0.3,0,0.5,0,0.8,0v-65h189.9v65l5.2,0.3c0.3,0,0.5,0,0.8,0c0.2,0,0.4,0,0.6,0.1l0,0
			c0.1,0,0.1,0,0.2,0h0.2c0.1,0,0.3,0.1,0.4,0.1l0.2,0c0.2,0.1,0.4,0.1,0.5,0.2l0.1,0c0.2,0.1,0.3,0.2,0.5,0.2l0.1,0.1
			c0.2,0.1,0.3,0.2,0.5,0.3c0.1,0.1,0.3,0.2,0.4,0.3c0.2,0.1,0.3,0.2,0.4,0.4c0.1,0.1,0.2,0.2,0.3,0.3l0.2,0.2
			c0.1,0.1,0.3,0.3,0.4,0.5c0.1,0.1,0.2,0.2,0.3,0.4c0.1,0.2,0.3,0.3,0.4,0.5c0,0,0.1,0.1,0.1,0.1c0.1,0.1,0.2,0.3,0.3,0.4v0
			c0.1,0.1,0.2,0.3,0.2,0.4v0.1c0,0,0.1,0.1,0.1,0.1c0.1,0.2,0.2,0.4,0.3,0.6s0.2,0.5,0.3,0.7s0.2,0.5,0.3,0.7s0.1,0.4,0.2,0.6
			c0.1,0.1,0.1,0.3,0.1,0.4c0,0.1,0.1,0.3,0.1,0.4v0.1c0.1,0.3,0.2,0.6,0.2,0.9s0.2,0.7,0.3,1.1s0.2,0.9,0.3,1.3l0.1,0.5l0,0
			c0.1,0.4,0.2,0.9,0.2,1.4l0,0c0.1,0.5,0.1,0.9,0.2,1.4c0,0,0,0.1,0,0.1s0,0.1,0,0.1l0,0c0.1,0.5,0.1,1.1,0.2,1.6s0.1,0.9,0.1,1.3
			l0,0c0,0.1,0,0.2,0,0.3v0.1c0,0.5,0,1,0.1,1.4s0,0.9,0,1.4l0,0c0,0.3,0,0.6,0,0.9C278.9,358.1,278.8,361.3,278.6,364.5z"/>
		<line class="st2" x1="275.1" y1="343.5" x2="234.1" y2="343.5"/>
		<polyline class="st2" points="94.9,343.5 67.4,343.5 66.2,343.5 		"/>
		<path class="st0" d="M91,340.3v119.9c6.2-0.9,12.2-1.7,17.9-2.5v-44.2c0-9.8,26.1-26.4,42.5-35.9c7.6-4.4,13.1-7.2,13.1-7.2
			s5.5,2.9,13.1,7.2c16.4,9.5,42.5,26.1,42.5,35.9v43.6c5.7,0.7,11.7,1.4,17.9,2.1v-119L91,340.3z M122.1,376.5
			c-5.9,0-10.8-4.8-10.8-10.8c0-5.9,4.8-10.8,10.7-10.8c5.9,0,10.8,4.8,10.8,10.8c0,0,0,0,0,0C132.8,371.7,128,376.5,122.1,376.5
			C122.1,376.5,122.1,376.5,122.1,376.5L122.1,376.5z M215.9,376.5c-5.9,0-10.8-4.8-10.8-10.8c0-5.9,4.8-10.8,10.8-10.8
			s10.8,4.8,10.8,10.8c0,0,0,0,0,0C226.7,371.7,221.8,376.5,215.9,376.5C215.9,376.5,215.9,376.5,215.9,376.5L215.9,376.5z"/>
		<path class="st3" d="M226.6,365.8c0,5.9-4.8,10.8-10.8,10.8s-10.8-4.8-10.8-10.8c0-5.9,4.8-10.8,10.8-10.8
			C221.8,355,226.6,359.8,226.6,365.8C226.6,365.8,226.6,365.8,226.6,365.8z"/>
		<path class="st3" d="M132.8,365.8c0,5.9-4.8,10.8-10.8,10.8s-10.8-4.8-10.8-10.8c0-5.9,4.8-10.8,10.8-10.8l0,0
			C128,355,132.8,359.8,132.8,365.8z"/>
		<rect x="94.9" y="343.3" class="st0" width="139.1" height="0.2"/>
		<rect x="76.2" y="289" class="st0" width="185" height="34.5"/>
		<path class="st3" d="M92.2,292.2c0,0-5.2,3.8-6.7,4.6s-2.2,3.5-2.2,3.5v22.7l17.8,0.1v-22.7c0,0-0.7-2.6-2.2-3.5
			S92.2,292.3,92.2,292.2L92.2,292.2z"/>
		<path class="st3" d="M122.8,292.2c0,0-5.2,3.7-6.7,4.6s-2.2,3.5-2.2,3.5v22.7l17.9,0.1v-22.7c0,0-0.8-2.6-2.2-3.5
			S122.8,292.3,122.8,292.2L122.8,292.2z"/>
		<path class="st3" d="M155.6,292.2c0,0-5.2,3.7-6.7,4.6s-2.2,3.5-2.2,3.5v22.7l17.9,0.1v-22.7c0,0-0.7-2.6-2.2-3.5
			S155.6,292.3,155.6,292.2L155.6,292.2z"/>
		<path class="st3" d="M184.4,292.2c0,0-5.2,3.7-6.7,4.6s-2.2,3.5-2.2,3.5v22.7l17.9,0.1v-22.7c0,0-0.7-2.6-2.2-3.5
			S184.4,292.3,184.4,292.2L184.4,292.2z"/>
		<path class="st3" d="M214.4,292.2c0,0-5.2,3.7-6.7,4.6s-2.2,3.5-2.2,3.5v22.7l17.9,0.1v-22.7c0,0-0.8-2.6-2.2-3.5
			S214.4,292.3,214.4,292.2L214.4,292.2z"/>
		<path class="st3" d="M242.1,292.2c0,0-5.2,3.7-6.7,4.6s-2.2,3.5-2.2,3.5v22.7l17.9,0.1v-22.7c0,0-0.7-2.6-2.2-3.5
			S242.1,292.3,242.1,292.2L242.1,292.2z"/>
		<path class="st3" d="M320.1,285.2c0,0-5.2,3.7-6.7,4.6s-2.2,3.5-2.2,3.5v22.7l17.9,0.1v-22.7c0,0-0.7-2.6-2.2-3.5
			S320.1,285.3,320.1,285.2L320.1,285.2z"/>
		<path class="st3" d="M292.1,285.2c0,0-5.2,3.7-6.7,4.6s-2.2,3.5-2.2,3.5v22.7l17.9,0.1v-22.7c0,0-0.7-2.6-2.2-3.5
			S292.1,285.3,292.1,285.2L292.1,285.2z"/>
		<path class="st3" d="M29.1,285.2c0,0-5.2,3.7-6.7,4.6s-2.2,3.5-2.2,3.5v22.7l17.8,0.1v-22.7c0,0-0.7-2.6-2.2-3.5
			S29.1,285.3,29.1,285.2L29.1,285.2z"/>
		<path class="st3" d="M6.5,285.2c0,0-3.8,3.8-4.9,4.6S0,293.4,0,293.4v22.7l13.1,0.1v-22.7c0,0-0.5-2.6-1.6-3.5
			S6.5,285.3,6.5,285.2L6.5,285.2z"/>
	</g>
</g>
</svg>
