<svg xmlns="http://www.w3.org/2000/svg" viewBox="0 0 325.48 245.71"><defs><style>.cls-1{fill:#fff;stroke:#231f20;stroke-miterlimit:10;}</style></defs><g id="Layer_2" data-name="Layer 2"><g id="Layer_1-2" data-name="Layer 1"><path class="cls-1" d="M207.79,88.34,184,84.13a78.67,78.67,0,0,0-6.31-17.27l12.32-17.39a3.61,3.61,0,0,0,0-5.09L167.14,21.47a3.61,3.61,0,0,0-5.09,0L145.58,33a78.81,78.81,0,0,0-15.73-6.86L126,4.1a3.61,3.61,0,0,0-3.6-3.6H90a3.61,3.61,0,0,0-3.6,3.6L82.64,25.85a79.56,79.56,0,0,0-19.58,8.88L47,23.51a3.61,3.61,0,0,0-5.09,0L19,46.42a3.61,3.61,0,0,0,0,5.09l13.24,18.7a79,79,0,0,0-4.72,14L4.1,88.34a3.61,3.61,0,0,0-3.6,3.6v32.4a3.61,3.61,0,0,0,3.6,3.6L31,132.52a79.39,79.39,0,0,0,5.16,10.66L21.53,164a3.61,3.61,0,0,0,0,5.09L44.44,192a3.61,3.61,0,0,0,5.09,0l22.61-16a77.08,77.08,0,0,0,9.18,3.55.61.61,0,0,0,0,.14l5,29.52a3.61,3.61,0,0,0,3.6,3.6h32.4a3.61,3.61,0,0,0,3.6-3.6l5-28.44c0-.44-.33-.83-.87-1.17a79.39,79.39,0,0,0,11-4.41L164.88,192a3.61,3.61,0,0,0,5.09,0l22.91-22.91a3.61,3.61,0,0,0,0-5.09l-16.15-23.12a78,78,0,0,0,3.88-8.34l27.18-4.64a3.61,3.61,0,0,0,3.6-3.6V91.94A3.61,3.61,0,0,0,207.79,88.34Zm-102,65.52a48.6,48.6,0,1,1,48.6-48.6A48.6,48.6,0,0,1,105.79,153.86Z"/><path class="cls-1" d="M320.92,161.86l-15-1.42A49.41,49.41,0,0,0,301.15,150l6.78-11.43a2.24,2.24,0,0,0-.25-3.16l-15.4-13.1a2.24,2.24,0,0,0-3.16.26l-9.67,8a49.16,49.16,0,0,0-10.12-3.47l-3.54-13.5a2.25,2.25,0,0,0-2.42-2.06l-20.14,1.63a2.25,2.25,0,0,0-2.06,2.42L240,129.29a49.26,49.26,0,0,0-11.72,6.51l-10.55-6.17a2.25,2.25,0,0,0-3.16.25l-13.1,15.4a2.25,2.25,0,0,0,.26,3.17l9.17,11a48.62,48.62,0,0,0-2.23,8.93l-14.36,3.76a2.25,2.25,0,0,0-2.06,2.42l1.63,20.15a2.24,2.24,0,0,0,2.42,2.05l16.92,1.5a49.28,49.28,0,0,0,3.75,6.37l-8,13.71a2.25,2.25,0,0,0,.25,3.16l15.4,13.1a2.26,2.26,0,0,0,3.17-.26L241,223.21a47.45,47.45,0,0,0,5.89,1.74V225l4.62,18.11a2.25,2.25,0,0,0,2.42,2l20.15-1.63a2.23,2.23,0,0,0,2.05-2.41l1.71-17.94c0-.28-.25-.5-.6-.69a49.27,49.27,0,0,0,6.63-3.29l15.61,9.26a2.25,2.25,0,0,0,3.16-.25l13.1-15.4a2.26,2.26,0,0,0-.26-3.17l-11.2-13.56a51,51,0,0,0,2-5.38l16.67-4.25a2.26,2.26,0,0,0,2.06-2.42l-1.63-20.15A2.26,2.26,0,0,0,320.92,161.86Zm-60.14,45.87a30.32,30.32,0,1,1,27.78-32.66A30.32,30.32,0,0,1,260.78,207.73Z"/></g></g></svg>