<svg xmlns="http://www.w3.org/2000/svg" viewBox="0 0 533.51 234.5"><defs><style>.cls-1{fill:#003a2e;}</style></defs><g id="Layer_2" data-name="Layer 2"><g id="Layer_1-2" data-name="Layer 1"><path class="cls-1" d="M533.51,133.55l-54.68-21.73H432.56V99.9h46.27V55.73H432.56V44.17h45.92V0H34V44.17H89.74V55.73H34.35V99.9H89.74v11.92H34.35L0,133.55H45.32L20.15,228l8.8,2.34,25.8-96.74H75.32l-22.92,86,8.8,2.35,23.55-88.33H423L449.87,234.5l8.81-2.35-26.29-98.6h27L486.33,234.5l8.81-2.35-26.29-98.6ZM98.85,44.17H423.44V55.73H98.85Zm0,67.65V99.9H423.44v11.92Z"/></g></g></svg>