<svg xmlns="http://www.w3.org/2000/svg" xmlns:xlink="http://www.w3.org/1999/xlink" viewBox="0 0 1925.68 866.87"><defs><style>.cls-1{fill:url(#linear-gradient);}.cls-2{fill:none;}.cls-3{fill:url(#linear-gradient-2);}.cls-4{fill:url(#linear-gradient-3);}.cls-5{fill:url(#linear-gradient-4);}</style><linearGradient id="linear-gradient" x1="395.26" y1="420.28" x2="426.05" y2="2.74" gradientUnits="userSpaceOnUse"><stop offset="0" stop-color="#151926" stop-opacity="0"/><stop offset="0.2" stop-color="#181a26" stop-opacity="0.02"/><stop offset="0.36" stop-color="#201d24" stop-opacity="0.08"/><stop offset="0.5" stop-color="#2f2221" stop-opacity="0.18"/><stop offset="0.64" stop-color="#432a1e" stop-opacity="0.33"/><stop offset="0.77" stop-color="#5d3319" stop-opacity="0.52"/><stop offset="0.89" stop-color="#7d3f13" stop-opacity="0.74"/><stop offset="1" stop-color="#a14c0d"/></linearGradient><linearGradient id="linear-gradient-2" x1="545.2" y1="779.33" x2="939.76" y2="350.21" gradientUnits="userSpaceOnUse"><stop offset="0" stop-color="#151926" stop-opacity="0"/><stop offset="0.14" stop-color="#191b25" stop-opacity="0.03"/><stop offset="0.3" stop-color="#261f23" stop-opacity="0.12"/><stop offset="0.47" stop-color="#3b271f" stop-opacity="0.27"/><stop offset="0.65" stop-color="#58311a" stop-opacity="0.48"/><stop offset="0.84" stop-color="#7c3f14" stop-opacity="0.74"/><stop offset="1" stop-color="#a14c0d"/></linearGradient><linearGradient id="linear-gradient-3" x1="1433.36" y1="802.73" x2="1056.08" y2="405.29" gradientUnits="userSpaceOnUse"><stop offset="0" stop-color="#151926" stop-opacity="0"/><stop offset="0.41" stop-color="#4d2d1c" stop-opacity="0.4"/><stop offset="1" stop-color="#a14c0d"/></linearGradient><linearGradient id="linear-gradient-4" x1="1700.69" y1="551.3" x2="1424.21" y2="104.9" gradientUnits="userSpaceOnUse"><stop offset="0" stop-color="#151926" stop-opacity="0"/><stop offset="0.15" stop-color="#191a25" stop-opacity="0.03"/><stop offset="0.31" stop-color="#241e23" stop-opacity="0.11"/><stop offset="0.47" stop-color="#362520" stop-opacity="0.24"/><stop offset="0.64" stop-color="#502e1b" stop-opacity="0.42"/><stop offset="0.8" stop-color="#713b16" stop-opacity="0.66"/><stop offset="0.97" stop-color="#99490e" stop-opacity="0.94"/><stop offset="1" stop-color="#a14c0d"/></linearGradient></defs><g id="Layer_2" data-name="Layer 2"><g id="Layer_1-2" data-name="Layer 1"><path class="cls-1" d="M827.46,230c-29.38,45-221.19,78.07-253.32,85.47-188.61,43.44-291.59-24-436.64-28.49-65.28-2-108-7.27-136.25-13.69V105.54a28.83,28.83,0,0,1,0-16.64c2.82-9.4,10.28-17,19.82-19.28,15.36-3.65,32,7.57,34.06,24.77C55,76.7,66.09,65.37,75,65.9c8.19.48,13.58,11,14.22,12.33C74.53,45.2,93.38,9,121.4,1.49c26.3-7.07,58.68,11.6,65.65,44.59,1.48-1.83,17.81-21.34,40.88-19.2,22.73,2.11,42.83,24.39,43.35,53.27,3.6-1,15-3.79,26.64,1.85,13.56,6.6,21.9,22,21.05,39,1.55-1.52,20.37-19.48,46.45-14.24,19.06,3.83,34.45,18.52,39.64,37.78,1.49-4.2,7-18.14,21.06-24.78,17.6-8.31,41.51-1.8,57,17.35C466.85,105.55,482,72.45,502.92,65.9c15.91-5,37.59,4.65,50.17,24.77-1.58-15.06,3.52-29.76,14.24-37.16,16-11,43.87-5.45,58.84,18,13.17-20.22,32.81-30,47.69-25.39,15.56,4.88,15.86,35.68,23.53,32.21C846.66,10.78,831.81,223.38,827.46,230Z"/><polyline class="cls-2" points="0 703.3 0 432.4 0 405.53"/><path class="cls-3" d="M428.39,557.29c-11-24.17-3.08-49.92,12.3-58.81,18.27-10.57,51.59,0,62.92,31.45-8.33-35.27,11.13-71,43.76-82.74,30.14-10.82,64.94,1.21,82.75,29.4,3.94-6.12,26.22-39.43,67-45.13a89.12,89.12,0,0,1,39,3.42c2-3.84,10.12-18.37,28-25.3a53.39,53.39,0,0,1,31.45-2.05A42.83,42.83,0,0,1,872.19,400c16.82-10.69,30.67-12.48,39.67-12.3,43.84.84,87.64,50.37,103.94,124.45,2.69-3.23,26.83-31.53,51.29-26,25.24,5.72,38.86,44.8,35.56,69.06-10.42,76.51-203,108.15-252.34,116.26-213,35-459.71,0-466.37-60.86C382.71,599.45,389,582,428.39,557.29Z"/><path class="cls-4" d="M1058,826.4c-10.38-19.77-19.51-71.54,5-92,19.81-16.53,58.58-10.11,98,14-38.07-32.82-52-77.8-37-109,3.11-6.46,10.66-18.95,29-29-16.06-40.88-11.73-83.93,11-104,31.18-27.52,104.55-18.5,147,46,1.92-1.51,43.21-32.88,92-14,46.8,18.11,57.34,65.76,58,69,6.32-2,59.51-18.08,106,15,30.58,21.76,41,52.47,44,63,21.09-23.64,53.2-32.7,80-23,34.36,12.44,55.35,54,43,95C1229.58,900.66,1086.14,880,1058,826.4Z"/><path class="cls-5" d="M1187,460.4c-34.89-6.22-56.58-38.12-52-66,5.12-31.2,42.89-55.81,81-43a114.6,114.6,0,0,1,72-92c59.38-23,109.64,15.15,112,17,16.42-34.46,49.73-57.52,87-60,50.61-3.36,82.58,33,86,37,5.09-5.53,31.71-33.33,75-35,50.59-2,82,33.4,86,38-19.12-37.54-10.16-83.25,21-110,29.27-25.11,131.28-41.49,165-21,19.67,74.67-19.67,162.34,0,237Z"/></g></g></svg>