<svg xmlns="http://www.w3.org/2000/svg" xmlns:xlink="http://www.w3.org/1999/xlink" viewBox="0 0 1935.16 1080"><defs><style>.cls-1{fill:url(#linear-gradient);}.cls-2{fill:none;stroke:#acd5a0;stroke-miterlimit:10;stroke-width:5px;}.cls-3{fill:#acd5a0;}.cls-4{fill:#025d56;}.cls-5{fill:#003a2e;}.cls-6{fill:#fee9c2;}.cls-7{fill:url(#linear-gradient-2);}.cls-8{fill:url(#linear-gradient-3);}</style><linearGradient id="linear-gradient" x1="944.69" y1="-154.03" x2="970.61" y2="1021.01" gradientUnits="userSpaceOnUse"><stop offset="0" stop-color="#003a2e"/><stop offset="0.13" stop-color="#0e4637"/><stop offset="0.36" stop-color="#32674f"/><stop offset="0.68" stop-color="#6c9b75"/><stop offset="1" stop-color="#acd5a0"/></linearGradient><linearGradient id="linear-gradient-2" x1="1116.22" y1="331" x2="1116.22" y2="779.54" gradientUnits="userSpaceOnUse"><stop offset="0" stop-color="#fee9c2"/><stop offset="0.04" stop-color="#fdeac5" stop-opacity="0.94"/><stop offset="0.25" stop-color="#faecd2" stop-opacity="0.66"/><stop offset="0.45" stop-color="#f7eede" stop-opacity="0.43"/><stop offset="0.62" stop-color="#f5f0e6" stop-opacity="0.24"/><stop offset="0.78" stop-color="#f3f1ed" stop-opacity="0.11"/><stop offset="0.91" stop-color="#f2f2f1" stop-opacity="0.03"/><stop offset="1" stop-color="#f2f2f2" stop-opacity="0"/></linearGradient><linearGradient id="linear-gradient-3" x1="958.71" y1="825.31" x2="961.58" y2="1072.19" gradientUnits="userSpaceOnUse"><stop offset="0" stop-color="#004339"/><stop offset="1" stop-color="#025d56"/></linearGradient></defs><g id="Layer_2" data-name="Layer 2"><g id="Layer_1-2" data-name="Layer 1"><rect class="cls-1" width="1920" height="1080"/><path class="cls-2" d="M1927.42,246V187.77q-4.11-.53-8.25-.91l-2.1-.2q-13.52-1.2-27.35-1.21c-1.67,0-3.34,0-5,.05a304.35,304.35,0,0,0-52.57,5.38q-2.54.48-5,1c-1.67.35-3.35.72-5,1.09l-2.49.58-2.49.6-1.8.45q-1.58.39-3.15.81l-2,.53-2.12.58q-2.94.83-5.88,1.71l-2.7.82q-9.45,2.91-18.62,6.44l-2.66,1q-8.4,3.32-16.55,7.11-11,5.12-21.55,11.08-3.12,1.75-6.19,3.6-2.54,1.5-5,3.06A301.81,301.81,0,0,0,1699,252.61l-2.42,2c-.45.36-.9.73-1.33,1.1-.79.65-1.58,1.31-2.36,2s-1.74,1.47-2.6,2.23l-2.57,2.25c-.85.76-1.7,1.52-2.54,2.29l-2.86,2.62a305.92,305.92,0,0,0-25.71,27.08c-1.5,1.77-3,3.56-4.41,5.37q-3.23,4-6.31,8.14c-.72,1-1.44,1.93-2.15,2.91q-2.94,4-5.75,8.17-4.23,6.19-8.13,12.61-5,8.12-9.44,16.56l-1.26,2.43c-.6,1.16-1.19,2.33-1.78,3.5s-1.13,2.29-1.7,3.45a1.63,1.63,0,0,0-.09.19c-.54,1.12-1.07,2.24-1.6,3.37a.21.21,0,0,0,0,.1c-.55,1.17-1.09,2.34-1.62,3.52-.42.93-.84,1.86-1.25,2.8s-.89,2-1.32,3.06c-.52,1.23-1,2.47-1.55,3.71q-1.56,3.81-3,7.68c-.42,1.1-.82,2.2-1.23,3.3s-.75,2.07-1.12,3.11-.69,2-1,3l-.93,2.77q-1.29,3.9-2.47,7.84-3.43,11.3-6,22.94-1.71,7.85-3,15.85c-.44,2.7-.84,5.42-1.21,8.14q-.75,5.52-1.29,11.08c-.11,1-.2,2.1-.29,3.16-.08.85-.15,1.71-.21,2.56l-.24,3.08q-.72,10.5-.72,21.18,0,7.69.38,15.3a305.43,305.43,0,0,0,4.65,40.09q.68,3.69,1.44,7.33c.18.91.38,1.81.58,2.71l.75,3.32c.26,1.11.52,2.21.79,3.31s.46,1.9.7,2.84c.4,1.57.81,3.15,1.24,4.71.25.92.5,1.84.76,2.75.41,1.47.84,2.94,1.27,4.4,1.29,4.39,2.7,8.74,4.19,13q1.33,3.86,2.77,7.66l.18.48q2.11,5.6,4.46,11.08a301.24,301.24,0,0,0,17.19,34.21c.41.7.82,1.4,1.24,2.1q6.7,11.26,14.35,21.89c.74,1,1.48,2.05,2.23,3.07q1.38,1.88,2.78,3.72c.45.61.92,1.22,1.4,1.83l.82,1.05.69.89c.9,1.15,1.82,2.3,2.74,3.44.69.86,1.4,1.72,2.11,2.58.49.6,1,1.2,1.49,1.79.7.84,1.41,1.68,2.13,2.51s1.34,1.56,2,2.33q3.06,3.48,6.21,6.87c.25.28.52.56.79.84s.54.58.82.86.55.57.82.86l.91,1,.91,1,0,0q1.93,2,3.92,4c.12.12.25.24.37.37l.51.49,2.13,2.09,2.15,2.07q6.54,6.18,13.43,12a1.92,1.92,0,0,0,.32.26q4.8,4.05,9.77,7.88l1.5,1.16q6.75,5.15,13.8,9.92c2.39,1.63,4.81,3.21,7.25,4.77q4.62,2.94,9.35,5.72,6.48,3.81,13.16,7.3c2.61,1.37,5.24,2.69,7.89,4,1.21.6,2.43,1.18,3.66,1.75l2.71,1.25,1.14.52,3.08,1.37,2.15.93.69.29.84.36.85.36,1,.43c1.08.45,2.17.9,3.27,1.34q3.59,1.44,7.22,2.79a297.49,297.49,0,0,0,39,11.62q7,1.59,14.2,2.84,12.49,2.2,25.35,3.37l1.94.17c1.42.12,2.83.23,4.25.33q2.88.19,5.76.34l3,.14q6.3.25,12.66.26,5.13,0,10.2-.18,13.92-.43,27.5-2.13V275.93L1932.7,246"/><polyline class="cls-2" points="1927.42 511.46 1889.73 489.7 1889.72 489.7 1889.72 489.69 1889.71 489.69 1889.7 489.68 1843.01 462.73 1672.01 364 1633.31 341.66 1626.23 337.57"/><polyline class="cls-2" points="1927.42 511.46 1889.73 489.7 1889.72 489.7 1889.72 489.69 1889.71 489.69 1889.7 489.68 1843.01 462.73 1672.01 364 1633.31 341.66 1626.23 337.57"/><polyline class="cls-2" points="1927.42 554.99 1889.73 489.71 1889.73 489.7 1889.72 489.7 1889.72 489.69 1862.68 442.86 1762.88 270 1737.6 226.21"/><polyline class="cls-2" points="1737.6 753.19 1889.72 489.71 1889.72 489.7 1889.73 489.7 1889.73 489.69 1889.74 489.68 1916.87 442.69 1927.42 424.41"/><polyline class="cls-2" points="1585.47 489.7 1616.07 489.7 1622.07 489.7 1835.92 489.7 1889.71 489.7 1889.72 489.7 1889.73 489.7 1889.75 489.7 1927.42 489.7"/><line class="cls-2" x1="1889.72" y1="185.45" x2="1889.72" y2="793.95"/><polyline class="cls-2" points="1927.42 467.93 1889.75 489.67 1889.73 489.69 1889.72 489.69 1889.72 489.7 1889.71 489.7 1889.68 489.72 1843.18 516.56 1627.34 641.18 1626.23 641.82"/><path class="cls-2" d="M1927.42,246V187.79c-2.76-.35-5.5-.66-8.25-.93l-2.1-.2a304.82,304.82,0,0,0-32.16-1.23h-.19a302,302,0,0,0-55.65,6c-.65.13-1.31.27-2,.42-1.67.35-3.35.72-5,1.09l-2.49.58-2.49.6-1.8.45q-1.58.39-3.15.81l-2,.53-2.12.58q-2.94.83-5.88,1.71l-2.7.82q-9.37,2.92-18.5,6.44-2.4.92-4.79,1.88-7.31,2.94-14.43,6.26-11,5.12-21.57,11.08c-.87.49-1.73,1-2.59,1.49-1.23.7-2.45,1.42-3.67,2.15q-3.27,1.95-6.49,4a306.2,306.2,0,0,0-28.4,20.27l-2.42,2c-.45.36-.9.73-1.33,1.1-.79.65-1.58,1.31-2.36,2s-1.74,1.47-2.6,2.23l-2.57,2.25q-2.73,2.4-5.4,4.91c-1.25,1.15-2.5,2.32-3.73,3.51a303.65,303.65,0,0,0-26.44,28.94q-3.24,4-6.31,8.14-3.89,5.19-7.55,10.55l-.36.53q-4.2,6.16-8.09,12.56-5,8.13-9.42,16.61l-1.26,2.43c-.6,1.16-1.19,2.33-1.78,3.5s-1.13,2.29-1.7,3.45a1.63,1.63,0,0,0-.09.19c-.54,1.12-1.07,2.24-1.6,3.37a.21.21,0,0,0,0,.1c-.55,1.17-1.09,2.34-1.62,3.52-.42.93-.84,1.86-1.25,2.8s-.89,2-1.32,3.06c-.52,1.23-1,2.47-1.55,3.71q-1.56,3.81-3,7.68c-.42,1.1-.82,2.2-1.23,3.3s-.75,2.07-1.12,3.11-.69,2-1,3l-.93,2.77q-1.29,3.9-2.47,7.84a309.72,309.72,0,0,0-8.34,35.15c-.21,1.21-.42,2.42-.62,3.64-.44,2.71-.85,5.43-1.22,8.14q-.76,5.55-1.31,11.08c-.11,1-.21,2.11-.3,3.16-.08.85-.15,1.71-.21,2.56l-.24,3.08q-.86,11.94-.76,23.76,0,6.39.37,12.72a300.71,300.71,0,0,0,4.86,41.09c.4,2.11.82,4.23,1.28,6.33.18.91.38,1.81.58,2.71l.75,3.32c.26,1.11.52,2.21.79,3.31s.46,1.9.7,2.84c.4,1.57.81,3.15,1.24,4.71.25.92.5,1.84.76,2.75.41,1.47.84,2.94,1.27,4.4q2,6.57,4.23,13c.89,2.59,1.83,5.17,2.8,7.73,0,.14.1.27.16.41q2.12,5.6,4.47,11.08a303.11,303.11,0,0,0,16.54,33.1c.2.35.4.71.61,1.06.35.61.7,1.21,1.06,1.81q6.78,11.41,14.51,22.23c.74,1,1.48,2.05,2.23,3.07q1.38,1.88,2.78,3.72c.45.61.92,1.22,1.4,1.83l.82,1.05.69.89c.9,1.15,1.82,2.3,2.74,3.44.69.86,1.4,1.72,2.11,2.58.49.6,1,1.2,1.49,1.79.7.84,1.41,1.68,2.13,2.51s1.34,1.56,2,2.33c1.75,2,3.55,4,5.37,6,.27.29.55.59.84.88s.52.56.79.84.54.58.82.86.55.57.82.86l.91,1,.91,1,0,0q1.93,2,3.92,4c.12.12.25.24.37.37l.51.49,2.13,2.09,2.15,2.07q6.49,6.18,13.35,12,4.93,4.18,10.07,8.14,5.31,4.11,10.83,8,2.22,1.56,4.48,3.09,3.61,2.46,7.32,4.8,4.62,3,9.36,5.72,6.47,3.81,13.16,7.28,3.91,2.06,7.9,4c1.21.6,2.43,1.18,3.66,1.75l2.71,1.25,1.14.52,3.08,1.37,2.15.93.69.29.84.36.85.36,1,.43c1.08.45,2.17.9,3.27,1.34q3.59,1.44,7.22,2.79a306.05,306.05,0,0,0,53.19,14.42l.17,0q12.63,2.22,25.18,3.38l1.94.17c1.42.12,2.83.23,4.25.33q2.88.19,5.76.34l3,.14q11.51.51,22.86.15c2-.06,4-.15,6-.25q10.83-.57,21.51-1.91V275.93L1932.7,246"/><polyline class="cls-2" points="1656.65 294.13 1663.05 299.5 1672.75 307.64 1683.06 316.29 1685.66 318.47 1685.96 318.72 1688.33 320.71 1848.37 455.01 1889.7 489.68 1889.71 489.69 1889.71 489.7 1889.72 489.7 1889.73 489.7 1889.73 489.71 1927.42 521.33"/><polyline class="cls-2" points="1656.65 294.13 1663.05 299.5 1672.75 307.64 1683.06 316.29 1685.66 318.47 1685.96 318.72 1688.33 320.71 1848.37 455.01 1889.7 489.68 1889.71 489.69 1889.71 489.7 1889.72 489.7 1889.73 489.7 1889.73 489.71 1927.42 521.33"/><polyline class="cls-2" points="1927.42 593.28 1908.15 540.34 1889.73 489.71 1889.72 489.71 1889.72 489.7 1889.72 489.69 1889.72 489.68 1871.21 438.83 1794.74 228.73 1793.28 224.72 1792.66 223.02 1790.06 215.88 1789.25 213.64 1786.28 205.5 1785.66 203.79"/><polyline class="cls-2" points="1694.15 722.77 1694.16 722.76 1694.38 722.5 1841.68 546.95 1889.72 489.71 1889.72 489.7 1889.72 489.69 1889.73 489.69 1889.75 489.67 1924.61 448.12 1927.42 444.77"/><polyline class="cls-2" points="1927.42 496.34 1889.75 489.7 1889.73 489.7 1889.72 489.7 1889.72 489.69 1889.71 489.69 1836.69 480.34 1630.92 444.06 1624.92 443 1610.73 440.5 1590.09 436.86"/><polyline class="cls-2" points="1836.89 789.33 1837.21 787.5 1880.39 542.66 1889.72 489.73 1889.72 489.71 1889.72 489.7 1889.73 489.7 1889.73 489.69 1899.14 436.28 1927.42 275.93 1932.7 246"/><polyline class="cls-2" points="1603.82 593.76 1615.52 589.5 1839.21 508.09 1889.68 489.72 1889.71 489.7 1889.72 489.7 1889.73 489.7 1927.42 475.98"/><path class="cls-3" d="M1659.91,861.79l22.52,13L1749,759.52h0l125.93-218.13a52.39,52.39,0,0,0,5.47,1.28,54.14,54.14,0,0,0,9.33.84h.2a53.73,53.73,0,0,0,18.23-3.16q2-.71,3.87-1.56l15.4,26.67V450.65c-.9-.87-1.84-1.72-2.81-2.53a53.65,53.65,0,0,0-25.47-11.84,55,55,0,0,0-9.22-.78h-.2a53.82,53.82,0,0,0-27,7.36A54.39,54.39,0,0,0,1843,462.73a53.59,53.59,0,0,0-6.32,17.61,54.27,54.27,0,0,0-.77,9.16v.2a53.67,53.67,0,0,0,3.29,18.39,52.8,52.8,0,0,0,4,8.47,54,54,0,0,0,9.24,11.79L1841.68,547l-102.76,178-5.86,10.15-3.83,6.63-2.75,4.77,0,0L1703.09,787Z"/><path class="cls-3" d="M1628.65,307.64v11.08h-2.93l4.16,12.56,0,.05,3.41,10.33,7.4,22.34h34.85l12.77-43.29.59-2h-3.26V307.64h3.26V299.5h-63.2v8.14Zm2.61,11.08V307.64h51.8v11.08Z"/><path class="cls-3" d="M1570.65,448.64v11.08h-2.93l15,45.28h34.85l4.51-15.3,8.85-30h-3.26V448.64h3.26V440.5h-63.2v8.14Zm2.61,0h51.8v11.08h-51.8Z"/><path class="cls-3" d="M1564.65,448.64v11.08h-2.93l15,45.28h34.85l4.51-15.3,8.85-30h-3.26V448.64h3.26V440.5h-63.2v8.14Zm2.61,0h51.8v11.08h-51.8Z"/><path class="cls-3" d="M1576.65,597.64v11.08h-2.93l15,45.28h34.85l3.26-11.07,0,0,.5-1.7,9.58-32.46h-3.26V597.64h3.26V589.5h-63.2v8.14Zm2.61,0h51.8v11.08h-51.8Z"/><path class="cls-3" d="M1678.65,730.64v11.08h-2.93l15,45.28h34.85l10.26-34.76v0l3.09-10.49h-3.26V730.64h3.26V722.5h-63.2v8.14Zm2.61,0h51.8v11.08h-51.8Z"/><path class="cls-3" d="M1836.72,787.5v8.14h2.93v11.08h-2.93l15,45.28h34.85l13.36-45.28h-3.26V795.64h3.26V787.5Zm5.54,8.14h51.8v11.08h-51.8Z"/><path class="cls-3" d="M1735.65,213.64v11.08h-2.93l1.19,3.6,0,0L1747.71,270h34.85l12.18-41.27,1.18-4h-3.26V213.64h3.26V205.5h-63.2v8.14Zm2.61,11.08V213.64h51.8v11.08Z"/><path class="cls-3" d="M1884.72,181.5v8.14h2.93v11.08h-2.93l5,15.1,10,30.18h27.71V200.72h-37.16V189.64h37.16V181.5Z"/><path class="cls-4" d="M.5,791.5v-112c15.48-1.7,404.29-44,536.31-44,18.7,0,31.59.85,38.31,2.53,27.07,6.76,162.75,23.26,322.62,39.23,137.55,13.74,308.38,28.42,375.34,28.42,5.86,0,10.91-.12,15-.34,14.88-.82,38.81-2.62,69.11-4.89,94.29-7.08,252.11-18.93,377.17-18.93,102.64,0,164.93,8,185.15,23.9V791.5Z"/><path d="M536.83,635.91c18.64,0,31.48.84,38.17,2.51,27.09,6.77,162.8,23.27,322.69,39.24,137.56,13.74,308.42,28.43,375.39,28.43,5.87,0,10.92-.12,15-.34,14.89-.82,38.82-2.62,69.12-4.89,94.29-7.08,252.1-18.93,377.14-18.93,102.21,0,164.32,8,184.65,23.64V791H1V679.9c21.28-2.33,404.88-44,535.82-44h0m0-1C401.2,634.91,0,679,0,679V792H1920V705.09c-22.73-18.12-96-24.16-185.65-24.16-164.71,0-384.49,20.42-446.31,23.82-4.15.23-9.15.34-15,.34-128,0-640.2-53.24-697.84-67.64-7.07-1.77-20.4-2.54-38.43-2.54Z"/><path class="cls-5" d="M1611.8,720.55h-28.06l26.33,98.75-7.84,2.09-26.89-100.84h-339l-23.52,88.22-7.84-2.09,23-86.13h-21.61l-25.76,96.63-7.84-2.09L1198,720.55h-44.24l32.77-20.73h55.74V686.9h-55.39V643.73h55.39V631.17H1186.5V588H1630v43.17h-45.92v12.56h46.27V686.9h-46.27v12.92h46.67l52.17,20.73h-62.7l26.32,98.75-7.84,2.09Zm-361.45-20.73h325.59V686.9H1250.35Zm0-56.09h325.59V631.17H1250.35Z"/><path d="M1629.48,588.5v42.17h-45.92v13.56h46.27V686.4h-46.27v13.92h47.08l49.65,19.73h-60.75l.34,1.26,26,97.63-6.87,1.84-26.66-100-.2-.75h-29.09l.33,1.26,26,97.63-6.88,1.84-26.65-100-.2-.75H1236l-.19.75-23.3,87.36-6.87-1.84,22.67-85,.33-1.26H1206l-.2.75-25.53,95.77-6.88-1.83,24.91-93.43.34-1.26h-43.17l31.19-19.73h56.1V686.4h-55.39V644.23h55.39V630.67H1187V588.5h442.48m-379.63,55.73h326.59V630.67H1249.85v13.56m0,56.09h326.59V686.4H1249.85v13.92M1630.48,587.5H1186v44.17h55.74v11.56h-55.39V687.4h55.39v11.92h-55.39L1152,721.05h45.32l-25.17,94.4,8.8,2.34,25.8-96.74h20.57l-22.92,86,8.8,2.35,23.55-88.33H1575l26.91,101,8.81-2.35-26.29-98.6h27l26.91,101,8.81-2.35-26.29-98.6h64.66l-54.68-21.73h-46.27V687.4h46.27V643.23h-46.27V631.67h45.92V587.5Zm-379.63,55.73V631.67h324.59v11.56Zm0,56.09V687.4h324.59v11.92Z"/><path class="cls-6" d="M1097,410.11a48.31,48.31,0,1,1,48.31-48.3A48.36,48.36,0,0,1,1097,410.11Z"/><path d="M1097,314a47.81,47.81,0,1,1-47.8,47.81A47.87,47.87,0,0,1,1097,314m0-1a48.81,48.81,0,1,0,48.81,48.81A48.8,48.8,0,0,0,1097,313Z"/><polyline class="cls-7" points="1145.36 354.83 1310 817.26 922.44 817.26 1048.2 356.18"/><path class="cls-4" d="M1196.19,817.27H1002.76l22-17.55h68.83V425.91h-14.4v-9.45h-22a13.56,13.56,0,0,1-13.56-13.56v-6.68h104.81v6.68A13.56,13.56,0,0,1,1135,416.46h-20.63v9.45h-14.84V799.72h72.42Z"/><rect class="cls-8" x="0.5" y="792.5" width="1919" height="287"/><path d="M1919,793v286H1V793H1919m1-1H0v288H1920V792Z"/></g></g></svg>