<svg xmlns="http://www.w3.org/2000/svg" viewBox="0 0 373.44 693.29"><defs><style>.cls-1{fill:none;stroke:#acd5a0;stroke-miterlimit:10;stroke-width:5px;}.cls-2{fill:#acd5a0;}</style></defs><g id="Layer_2" data-name="Layer 2"><g id="Layer_1-2" data-name="Layer 1"><path class="cls-1" d="M365.7,64.5V6.27q-4.11-.52-8.25-.91l-2.1-.2Q341.83,4,328,4c-1.67,0-3.34,0-5,0a304.35,304.35,0,0,0-52.57,5.38q-2.54.48-5,1c-1.67.35-3.35.72-5,1.09l-2.49.58-2.49.6-1.8.45-3.15.81-2,.53-2.12.58q-2.94.83-5.88,1.71l-2.7.82q-9.45,2.91-18.62,6.44l-2.66,1q-8.4,3.31-16.55,7.11-11,5.11-21.55,11.08-3.12,1.76-6.19,3.6-2.53,1.5-5,3.06a301.81,301.81,0,0,0-29.85,21.23l-2.42,2c-.45.36-.9.73-1.33,1.1-.79.65-1.58,1.31-2.36,2s-1.74,1.47-2.6,2.23L126,80.64c-.85.76-1.7,1.52-2.54,2.29l-2.86,2.62a305.92,305.92,0,0,0-25.71,27.08c-1.5,1.77-3,3.56-4.41,5.37q-3.22,4-6.31,8.14c-.72,1-1.44,1.93-2.15,2.91q-2.94,4-5.75,8.17-4.23,6.19-8.13,12.61-5,8.11-9.44,16.56l-1.26,2.43c-.6,1.16-1.19,2.33-1.78,3.5s-1.13,2.29-1.7,3.45a1.63,1.63,0,0,0-.09.19c-.54,1.12-1.07,2.24-1.6,3.37a.21.21,0,0,0,0,.1c-.55,1.17-1.09,2.34-1.62,3.52-.42.93-.84,1.86-1.25,2.8s-.89,2-1.32,3.06c-.52,1.23-1,2.47-1.55,3.71q-1.56,3.81-3,7.68c-.42,1.1-.82,2.2-1.23,3.3s-.75,2.07-1.12,3.11-.69,2-1,3l-.93,2.77q-1.29,3.9-2.47,7.84-3.43,11.29-6,22.94Q29,251,27.71,259c-.44,2.7-.84,5.42-1.21,8.14q-.75,5.52-1.29,11.08c-.11,1-.2,2.1-.29,3.16-.08.85-.15,1.71-.21,2.56L24.47,287q-.72,10.5-.72,21.18,0,7.69.38,15.3a305.43,305.43,0,0,0,4.65,40.09q.67,3.69,1.44,7.33c.18.91.38,1.81.58,2.71l.75,3.32c.26,1.11.52,2.21.79,3.31s.46,1.9.7,2.84c.4,1.57.81,3.15,1.24,4.71.25.92.5,1.84.76,2.75.41,1.47.84,2.94,1.27,4.4,1.29,4.39,2.7,8.74,4.19,13q1.34,3.86,2.77,7.66l.18.48q2.11,5.6,4.46,11.08A301.24,301.24,0,0,0,65.1,461.43c.41.7.82,1.4,1.24,2.1Q73,474.8,80.69,485.42c.74,1,1.48,2.05,2.23,3.07q1.38,1.88,2.78,3.72c.45.61.92,1.22,1.4,1.83l.82,1,.69.89c.9,1.15,1.82,2.3,2.74,3.44.69.86,1.4,1.72,2.11,2.58.49.6,1,1.2,1.49,1.79.7.84,1.41,1.68,2.13,2.51s1.34,1.56,2,2.33q3.06,3.48,6.21,6.87c.25.28.52.56.79.84s.54.58.82.86.55.57.82.86l.91,1,.91,1,0,0q1.94,2,3.92,4l.37.37.51.49,2.13,2.09,2.15,2.07q6.54,6.18,13.43,12a1.92,1.92,0,0,0,.32.26q4.8,4.05,9.77,7.88l1.5,1.16q6.75,5.15,13.8,9.92c2.39,1.63,4.81,3.21,7.25,4.77q4.62,2.94,9.35,5.72,6.48,3.81,13.16,7.3c2.61,1.37,5.24,2.69,7.89,4,1.21.6,2.43,1.18,3.66,1.75l2.71,1.25,1.14.52,3.08,1.37,2.15.93.69.29.84.36.85.36,1,.43c1.08.45,2.17.9,3.27,1.34q3.58,1.44,7.22,2.79a297.49,297.49,0,0,0,39,11.62q7,1.59,14.2,2.84,12.5,2.2,25.35,3.37l1.94.17c1.42.12,2.83.23,4.25.33q2.88.19,5.76.34l3,.14q6.3.25,12.66.26,5.13,0,10.2-.18,13.92-.43,27.5-2.13V94.43L371,64.5"/><polyline class="cls-1" points="365.7 329.96 328.01 308.2 328 308.2 328 308.19 327.99 308.19 327.98 308.18 281.29 281.23 110.29 182.5 71.59 160.16 64.51 156.07"/><polyline class="cls-1" points="365.7 329.96 328.01 308.2 328 308.2 328 308.19 327.99 308.19 327.98 308.18 281.29 281.23 110.29 182.5 71.59 160.16 64.51 156.07"/><polyline class="cls-1" points="365.7 373.49 328.01 308.21 328.01 308.2 328 308.2 328 308.19 300.96 261.36 201.16 88.5 175.88 44.71"/><polyline class="cls-1" points="175.88 571.69 328 308.21 328 308.2 328.01 308.2 328.01 308.19 328.02 308.18 355.15 261.19 365.7 242.91"/><polyline class="cls-1" points="23.75 308.2 54.35 308.2 60.35 308.2 274.2 308.2 327.99 308.2 328 308.2 328.01 308.2 328.03 308.2 365.7 308.2"/><line class="cls-1" x1="328" y1="3.95" x2="328" y2="612.45"/><polyline class="cls-1" points="365.7 286.43 328.03 308.17 328.01 308.19 328 308.19 328 308.2 327.99 308.2 327.96 308.22 281.46 335.06 65.62 459.68 64.51 460.32"/><path class="cls-1" d="M365.7,64.5V6.29c-2.76-.35-5.5-.66-8.25-.93l-2.1-.2a304.82,304.82,0,0,0-32.16-1.23H323a302,302,0,0,0-55.65,6c-.65.13-1.31.27-2,.42-1.67.35-3.35.72-5,1.09l-2.49.58-2.49.6-1.8.45-3.15.81-2,.53-2.12.58q-2.94.83-5.88,1.71l-2.7.82q-9.37,2.93-18.5,6.44-2.4.91-4.79,1.88-7.31,2.94-14.43,6.26-11,5.11-21.57,11.08c-.87.49-1.73,1-2.59,1.49-1.23.7-2.45,1.42-3.67,2.15q-3.27,1.95-6.49,4a306.2,306.2,0,0,0-28.4,20.27l-2.42,2c-.45.36-.9.73-1.33,1.1-.79.65-1.58,1.31-2.36,2s-1.74,1.47-2.6,2.23L126,80.64q-2.73,2.4-5.4,4.91c-1.25,1.15-2.5,2.32-3.73,3.51A303.65,303.65,0,0,0,90.47,118q-3.24,4-6.31,8.14-3.89,5.19-7.55,10.55l-.36.53q-4.2,6.17-8.09,12.56-5,8.13-9.42,16.61l-1.26,2.43c-.6,1.16-1.19,2.33-1.78,3.5s-1.13,2.29-1.7,3.45a1.63,1.63,0,0,0-.09.19c-.54,1.12-1.07,2.24-1.6,3.37a.21.21,0,0,0,0,.1c-.55,1.17-1.09,2.34-1.62,3.52-.42.93-.84,1.86-1.25,2.8s-.89,2-1.32,3.06c-.52,1.23-1,2.47-1.55,3.71q-1.56,3.81-3,7.68c-.42,1.1-.82,2.2-1.23,3.3s-.75,2.07-1.12,3.11-.69,2-1,3l-.93,2.77q-1.29,3.9-2.47,7.84a309.72,309.72,0,0,0-8.34,35.15c-.21,1.21-.42,2.42-.62,3.64-.44,2.71-.85,5.43-1.22,8.14q-.77,5.55-1.31,11.08c-.11,1-.21,2.11-.3,3.16-.08.85-.15,1.71-.21,2.56L24.47,287q-.86,11.94-.76,23.76,0,6.39.37,12.72a300.71,300.71,0,0,0,4.86,41.09c.4,2.11.82,4.23,1.28,6.33.18.91.38,1.81.58,2.71l.75,3.32c.26,1.11.52,2.21.79,3.31s.46,1.9.7,2.84c.4,1.57.81,3.15,1.24,4.71.25.92.5,1.84.76,2.75.41,1.47.84,2.94,1.27,4.4q2,6.57,4.23,13c.89,2.59,1.83,5.17,2.8,7.73,0,.14.1.27.16.41q2.11,5.6,4.47,11.08a303.11,303.11,0,0,0,16.54,33.1c.2.35.4.71.61,1.06.35.61.7,1.21,1.06,1.81Q73,474.61,80.69,485.42c.74,1,1.48,2.05,2.23,3.07q1.38,1.88,2.78,3.72c.45.61.92,1.22,1.4,1.83l.82,1,.69.89c.9,1.15,1.82,2.3,2.74,3.44.69.86,1.4,1.72,2.11,2.58.49.6,1,1.2,1.49,1.79.7.84,1.41,1.68,2.13,2.51s1.34,1.56,2,2.33c1.75,2,3.55,4,5.37,6,.27.29.55.59.84.88s.52.56.79.84.54.58.82.86.55.57.82.86l.91,1,.91,1,0,0q1.94,2,3.92,4l.37.37.51.49,2.13,2.09,2.15,2.07q6.5,6.18,13.35,12,4.94,4.18,10.07,8.14,5.31,4.11,10.83,8,2.22,1.56,4.48,3.09,3.62,2.46,7.32,4.8,4.62,3,9.36,5.72,6.47,3.81,13.16,7.28,3.92,2.06,7.9,4c1.21.6,2.43,1.18,3.66,1.75l2.71,1.25,1.14.52,3.08,1.37,2.15.93.69.29.84.36.85.36,1,.43c1.08.45,2.17.9,3.27,1.34q3.58,1.44,7.22,2.79A306.05,306.05,0,0,0,275,607.8l.17,0q12.63,2.22,25.18,3.38l1.94.17c1.42.12,2.83.23,4.25.33q2.88.19,5.76.34l3,.14q11.51.51,22.86.15c2-.06,4-.15,6-.25q10.83-.57,21.51-1.91V94.43L371,64.5"/><polyline class="cls-1" points="94.93 112.63 101.33 118 111.03 126.14 121.34 134.79 123.94 136.97 124.24 137.22 126.61 139.21 286.65 273.51 327.98 308.18 327.99 308.19 327.99 308.2 328 308.2 328.01 308.2 328.01 308.21 365.7 339.83"/><polyline class="cls-1" points="94.93 112.63 101.33 118 111.03 126.14 121.34 134.79 123.94 136.97 124.24 137.22 126.61 139.21 286.65 273.51 327.98 308.18 327.99 308.19 327.99 308.2 328 308.2 328.01 308.2 328.01 308.21 365.7 339.83"/><polyline class="cls-1" points="365.7 411.78 346.43 358.84 328.01 308.21 328 308.21 328 308.2 328 308.19 328 308.18 309.49 257.33 233.02 47.23 231.56 43.22 230.94 41.52 228.34 34.38 227.53 32.14 224.56 24 223.94 22.29"/><polyline class="cls-1" points="132.43 541.27 132.44 541.26 132.66 541 279.96 365.45 328 308.21 328 308.2 328 308.19 328.01 308.19 328.03 308.17 362.89 266.62 365.7 263.27"/><polyline class="cls-1" points="365.7 314.84 328.03 308.2 328.01 308.2 328 308.2 328 308.19 327.99 308.19 274.97 298.84 69.2 262.56 63.2 261.5 49.01 259 28.37 255.36"/><polyline class="cls-1" points="275.17 607.83 275.49 606 318.67 361.16 328 308.23 328 308.21 328 308.2 328.01 308.2 328.01 308.19 337.42 254.78 365.7 94.43 370.98 64.5"/><polyline class="cls-1" points="42.1 412.26 53.8 408 277.49 326.59 327.96 308.22 327.99 308.2 328 308.2 328.01 308.2 365.7 294.48"/><path class="cls-2" d="M98.19,680.29l22.52,13L187.26,578h0L313.2,359.88a52.39,52.39,0,0,0,5.47,1.28A54.14,54.14,0,0,0,328,362h.2a53.73,53.73,0,0,0,18.23-3.16q2-.7,3.87-1.56L365.7,384V269.15c-.9-.87-1.84-1.72-2.81-2.53a53.65,53.65,0,0,0-25.47-11.84,55,55,0,0,0-9.22-.78H328a53.82,53.82,0,0,0-27,7.36,54.39,54.39,0,0,0-19.67,19.87A53.59,53.59,0,0,0,275,298.84a54.27,54.27,0,0,0-.77,9.16v.2a53.67,53.67,0,0,0,3.29,18.39,52.8,52.8,0,0,0,4,8.47,54,54,0,0,0,9.24,11.79L280,365.45l-102.76,178-5.86,10.15-3.83,6.63L164.76,565l0,0L141.37,605.5Z"/><path class="cls-2" d="M66.93,126.14v11.08H64l4.16,12.56,0,.05,3.41,10.33L79,182.5h34.85l12.77-43.29.59-2h-3.26V126.14h3.26V118H64v8.14Zm2.61,11.08V126.14h51.8v11.08Z"/><path class="cls-2" d="M8.93,267.14v11.08H6L21,323.5H55.84l4.51-15.3,8.85-30H65.94V267.14H69.2V259H6v8.14Zm2.61,0h51.8v11.08H11.54Z"/><path class="cls-2" d="M2.93,267.14v11.08H0L15,323.5H49.84l4.51-15.3,8.85-30H59.94V267.14H63.2V259H0v8.14Zm2.61,0h51.8v11.08H5.54Z"/><path class="cls-2" d="M14.93,416.14v11.08H12L27,472.5H61.84l3.26-11.07,0-.05.5-1.7,9.58-32.46H71.94V416.14H75.2V408H12v8.14Zm2.61,0h51.8v11.08H17.54Z"/><path class="cls-2" d="M116.93,549.14v11.08H114l15,45.28h34.85l10.26-34.76v0l3.09-10.49h-3.26V549.14h3.26V541H114v8.14Zm2.61,0h51.8v11.08h-51.8Z"/><path class="cls-2" d="M275,606v8.14h2.93v11.08H275l15,45.28h34.85l13.36-45.28h-3.26V614.14h3.26V606Zm5.54,8.14h51.8v11.08h-51.8Z"/><path class="cls-2" d="M173.93,32.14V43.22H171l1.19,3.6,0,0L186,88.5h34.85L233,47.23l1.18-4h-3.26V32.14h3.26V24H171v8.14Zm2.61,11.08V32.14h51.8V43.22Z"/><path class="cls-2" d="M323,0V8.14h2.93V19.22H323l5,15.1L338,64.5H365.7V19.22H328.54V8.14H365.7V0Z"/></g></g></svg>